<?xml version="1.0" encoding="UTF-8" standalone="no"?>
<!DOCTYPE svg PUBLIC "-//W3C//DTD SVG 1.1//EN" "http://www.w3.org/Graphics/SVG/1.1/DTD/svg11.dtd">
<svg width="100%" height="100%" viewBox="0 0 256 256" version="1.1" xmlns="http://www.w3.org/2000/svg" xmlns:xlink="http://www.w3.org/1999/xlink" xml:space="preserve" xmlns:serif="http://www.serif.com/" style="fill-rule:evenodd;clip-rule:evenodd;stroke-linejoin:round;stroke-miterlimit:2;">
    <rect x="0" y="0" width="256" height="256" style="fill:white;"/>
    <path d="M0,0L32,32L224,32L256,0L0,0Z" style="fill:url(#_Linear1);"/>
    <path d="M0,0L32,32L32,224L0,256L0,0Z" style="fill:url(#_Linear2);"/>
    <g transform="matrix(-1,1.22465e-16,-1.22465e-16,-1,256,256)">
        <path d="M0,0L32,32L32,224L0,256L0,0Z" style="fill:url(#_Linear3);"/>
    </g>
    <path d="M0,256L32,224L224,224L256,256L0,256Z" style="fill:url(#_Linear4);"/>
    <defs>
        <linearGradient id="_Linear1" x1="0" y1="0" x2="1" y2="0" gradientUnits="userSpaceOnUse" gradientTransform="matrix(6.36816e-15,-104,104,6.36816e-15,128,26)"><stop offset="0" style="stop-color:white;stop-opacity:1"/><stop offset="1" style="stop-color:black;stop-opacity:1"/></linearGradient>
        <linearGradient id="_Linear2" x1="0" y1="0" x2="1" y2="0" gradientUnits="userSpaceOnUse" gradientTransform="matrix(-107,1.31037e-14,-1.31037e-14,-107,36,128)"><stop offset="0" style="stop-color:white;stop-opacity:1"/><stop offset="1" style="stop-color:black;stop-opacity:1"/></linearGradient>
        <linearGradient id="_Linear3" x1="0" y1="0" x2="1" y2="0" gradientUnits="userSpaceOnUse" gradientTransform="matrix(-107,1.31037e-14,-1.31037e-14,-107,36,128)"><stop offset="0" style="stop-color:white;stop-opacity:1"/><stop offset="1" style="stop-color:black;stop-opacity:1"/></linearGradient>
        <linearGradient id="_Linear4" x1="0" y1="0" x2="1" y2="0" gradientUnits="userSpaceOnUse" gradientTransform="matrix(5.51091e-15,-90,90,5.51091e-15,128,307)"><stop offset="0" style="stop-color:black;stop-opacity:1"/><stop offset="0.65" style="stop-color:rgb(36,36,36);stop-opacity:1"/><stop offset="1" style="stop-color:white;stop-opacity:1"/></linearGradient>
    </defs>
</svg>
